<svg xmlns="http://www.w3.org/2000/svg" width="100" height="100" viewBox="0 0 100 100"><path fill="#44B74A" d="M76.92 32.34c-3.454 0-6.67 1.004-9.385 2.73L50.44 47.624l-9.012-6.617c-.543.88-1.09 1.757-1.613 2.664-.126.218-.243.44-.367.657l7.532 5.53-15.805 11.606a13.622 13.622 0 0 1-7.217 2.064c-7.537 0-13.67-6.132-13.67-13.67s6.132-13.67 13.67-13.67c2.56 0 5.052.713 7.217 2.064l1.57 1.153a115.05 115.05 0 0 1 2.002-3.306l-1.404-1.03a17.425 17.425 0 0 0-9.385-2.73c-9.675 0-17.52 7.845-17.52 17.52s7.844 17.52 17.52 17.52c3.454 0 6.672-1.005 9.385-2.73L50.44 52.095l9.045 6.643c.554-.908 1.107-1.82 1.654-2.768.107-.188.205-.375.312-.563L53.9 49.86l15.803-11.606a13.624 13.624 0 0 1 7.217-2.064c7.538 0 13.67 6.132 13.67 13.67s-6.132 13.67-13.67 13.67c-2.56 0-5.05-.713-7.217-2.064l-1.548-1.137a139.73 139.73 0 0 1-1.987 3.315l1.368 1.004a17.427 17.427 0 0 0 9.385 2.728c9.676 0 17.52-7.844 17.52-17.52 0-9.674-7.844-17.518-17.52-17.518z"/></svg>